<?xml version="1.0" encoding="UTF-8"?>
<svg width="34px" height="33px" viewBox="0 0 34 33" version="1.1" xmlns="http://www.w3.org/2000/svg" xmlns:xlink="http://www.w3.org/1999/xlink">
    <!-- Generator: Sketch 47.1 (45422) - http://www.bohemiancoding.com/sketch -->
    <title>footprint_icon</title>
    <desc>Created with Sketch.</desc>
    <defs></defs>
    <g id="Symbols" stroke="none" stroke-width="1" fill="none" fill-rule="evenodd">
        <g id="Category-teaser" transform="translate(-235.000000, -35.000000)" fill="#8B999F">
            <g id="footprint_icon" transform="translate(235.000000, 35.000000)">
                <path d="M17.0000001,31.860468 C17.9415391,31.860468 18.4972718,31.9953715 19.4025409,32.3616268 C19.4116545,32.3653137 19.6369701,32.4568996 19.7040308,32.4838268 C20.6028673,32.844745 21.231865,33 22.1210355,33 C24.9157693,33 27.2420709,30.3137504 27.2420709,26.7325739 C27.2420709,21.1400681 22.2154161,15.3372537 17.0000001,15.3372537 C11.7845841,15.3372537 6.75792925,21.1400681 6.75792925,26.7325739 C6.75792925,30.4893956 9.01153045,33 11.8789647,33 C12.7681352,33 13.3971328,32.844745 14.2959693,32.4838268 C14.36303,32.4568996 14.5883456,32.3653137 14.5974592,32.3616268 C15.5027283,31.9953715 16.058461,31.860468 17.0000001,31.860468 Z M15.9174429,5.47895652 C15.3898466,2.14989521 13.3776185,-0.386888812 11.1568321,0.0487878947 C8.93604572,0.484464602 7.82499351,3.63397727 8.35258992,6.96303858 C8.88018628,10.2920999 10.8924143,12.8288839 13.1132008,12.3932072 C15.3339871,11.9575305 16.4450393,8.80801784 15.9174429,5.47895652 Z M20.8867994,12.3932072 C23.107586,12.8288839 25.1198139,10.2920999 25.6474101,6.96303858 C26.1750063,3.63397727 25.0639542,0.484464602 22.843168,0.0487878947 C20.6223816,-0.386888812 18.6101535,2.14989521 18.0825572,5.47895652 C17.5549608,8.80801784 18.666013,11.9575305 20.8867994,12.3932072 Z M26.3859643,18.1830515 C28.1967297,19.6467849 30.9489646,18.4655278 32.6537901,15.8548229 C34.358616,13.2441186 34.5178746,9.96682732 32.7071093,8.50309389 C30.8963439,7.03936045 28.144109,8.22061757 26.4392835,10.8313225 C24.7344576,13.4420268 24.575199,16.719318 26.3859643,18.1830515 Z M7.61403584,18.1830515 C9.42480123,16.719318 9.26554266,13.4420268 7.56071684,10.8313225 C5.85589097,8.22061757 3.10365615,7.03936045 1.2928908,8.50309389 C-0.51787459,9.96682732 -0.358616023,13.2441186 1.3462098,15.8548229 C3.05103567,18.4655278 5.80327049,19.6467849 7.61403584,18.1830515 Z" id="Shape"></path>
            </g>
        </g>
    </g>
</svg>