<?xml version="1.0" encoding="UTF-8"?>
<svg width="76px" height="83px" viewBox="0 0 76 83" version="1.1" xmlns="http://www.w3.org/2000/svg" xmlns:xlink="http://www.w3.org/1999/xlink">
    <!-- Generator: Sketch 47.1 (45422) - http://www.bohemiancoding.com/sketch -->
    <title>Leaf</title>
    <desc>Created with Sketch.</desc>
    <defs></defs>
    <g id="App" stroke="none" stroke-width="1" fill="none" fill-rule="evenodd">
        <g id="Product-list" transform="translate(-150.000000, -518.000000)" fill-rule="nonzero" fill="#E2E8EA">
            <g id="Leaf" transform="translate(187.736092, 559.139266) rotate(-91.000000) translate(-187.736092, -559.139266) translate(145.236092, 522.139266)">
                <path d="M83.9884146,2.02707143 C83.6509929,0.837785714 82.3769897,5.68434189e-14 80.9232381,5.68434189e-14 C80.9169314,5.68434189e-14 80.9106244,5.68434189e-14 80.9043174,5.68434189e-14 C64.2949724,0.0872142857 23.9052834,2.42085714 7.59867181,22.1471428 C-0.871558061,32.3961428 -1.60001045,45.7029286 5.43223552,61.6974999 C5.48584455,61.8217143 5.59621614,61.9062857 5.66874602,62.0199287 C3.15542763,67.2342857 2.18100431,70.7043571 2.15577652,70.8021427 C1.78997359,72.2292857 2.87792196,73.6352858 4.58079766,73.941857 C4.80154082,73.9814999 5.02228396,74 5.24302709,74 C6.69677839,74 8.00546993,73.1516427 8.32397072,71.9121427 C8.39019368,71.6425714 16.4252442,44.4977857 44.8317338,28.6274285 C46.2823315,27.8187143 46.6733622,26.1775 45.7052458,24.9617857 C44.7371294,23.7460714 42.7819758,23.4157143 41.3313781,24.2297143 C25.2234354,33.2286428 15.3026077,45.3937143 9.46868164,55.0348571 C5.29348268,42.9358573 6.38773801,32.8956428 12.7861358,25.1573571 C25.3779556,9.92392858 55.2445034,6.25035715 73.2729116,5.47335714 C69.3941389,10.2331428 65.1558707,18.9598571 65.1558707,34.3571428 C65.1558707,42.602857 62.3650466,48.9509999 56.8653889,53.2271429 C48.0482766,60.0747856 33.7252,60.7169998 23.2493609,60.0562858 C21.5086436,59.937357 19.9981297,61.0367855 19.8656838,62.493 C19.7332379,63.9465714 21.0356225,65.2151429 22.770033,65.3261427 C24.8670928,65.4609286 27.1060591,65.5428573 29.4333225,65.5428573 C40.0983699,65.5428573 52.5388229,63.7906427 61.1509592,57.1015715 C67.9939968,51.7867858 71.4628177,44.1357143 71.4628177,34.3597857 C71.4628177,10.3124285 82.2792317,5.03464286 82.3328408,5.01085716 C83.6446859,4.4585 84.3321432,3.22164286 83.9884146,2.02707143 Z" id="Shape"></path>
            </g>
        </g>
    </g>
</svg>