<?xml version="1.0" encoding="UTF-8"?>
<svg width="119px" height="27px" viewBox="0 0 119 27" version="1.1" xmlns="http://www.w3.org/2000/svg" xmlns:xlink="http://www.w3.org/1999/xlink">
    <!-- Generator: Sketch 47.1 (45422) - http://www.bohemiancoding.com/sketch -->
    <title>Quinoa logo</title>
    <desc>Created with Sketch.</desc>
    <defs></defs>
    <g id="Symbols" stroke="none" stroke-width="1" fill="none" fill-rule="evenodd">
        <g id="Nav-bar" transform="translate(-128.000000, -20.000000)" fill-rule="nonzero" fill="#FFFFFF">
            <g id="Quinoa-logo" transform="translate(128.000000, 19.000000)">
                <g id="Leaf" transform="translate(12.500000, 14.000000) rotate(-91.000000) translate(-12.500000, -14.000000) translate(-1.000000, 2.000000)">
                    <path d="M25.975034,0.638192608 C25.8698642,0.26376409 25.4727747,5.68434189e-14 25.0196601,5.68434189e-14 C25.0176943,5.68434189e-14 25.0157285,5.68434189e-14 25.0137627,5.68434189e-14 C19.8368551,0.0274580914 7.24793658,0.762170051 2.16538681,6.97269108 C-0.474669005,10.1994328 -0.701717738,14.388872 1.49013799,19.4245195 C1.5068472,19.4636265 1.54124853,19.4902525 1.56385511,19.5260313 C0.78048784,21.1676923 0.476773302,22.2601915 0.468910143,22.2909778 C0.354894329,22.740292 0.693993085,23.1829498 1.22475635,23.2794691 C1.29355901,23.29195 1.36236165,23.2977745 1.43116429,23.2977745 C1.88427886,23.2977745 2.29218027,23.0306821 2.39145265,22.6404444 C2.41209345,22.555574 4.91650977,14.0094511 13.7704275,9.01291047 C14.2225591,8.75829909 14.3444381,8.24158773 14.0426893,7.85883857 C13.7409405,7.47608942 13.1315457,7.37208151 12.6794141,7.62835702 C7.65878667,10.4615328 4.56659918,14.2915205 2.74824352,17.3268877 C1.44689061,13.5177016 1.78795516,10.3566928 3.782249,7.92041126 C7.70694853,3.12439798 17.0159466,1.96782988 22.635157,1.72320325 C21.4261961,3.22174939 20.1051854,5.96922265 20.1051854,10.8168239 C20.1051854,13.4128616 19.2353234,15.4114778 17.5211546,16.7577564 C14.7729802,18.9136325 10.3086714,19.1158239 7.04349443,18.9078082 C6.50093643,18.8703652 6.03012975,19.2165036 5.98884815,19.6749706 C5.94756657,20.1326054 6.35350218,20.5319959 6.8940944,20.5669425 C7.54771954,20.6093777 8.24557495,20.6351717 8.97095142,20.6351717 C12.2951021,20.6351717 16.1726226,20.0835136 18.8569088,17.9775613 C20.9897908,16.3042819 22.0709753,13.8954584 22.0709753,10.8176559 C22.0709753,3.24671128 25.4423049,1.58508073 25.4590141,1.57759216 C25.8678984,1.40369091 26.0821696,1.01428525 25.975034,0.638192608 Z" id="Shape"></path>
                </g>
                <path d="M41.683548,26.5769231 L41.683548,10.9835165 L39.7764752,10.9835165 L39.7764752,19.1730769 C39.7764752,19.9587951 39.685663,20.7293918 39.5040362,21.4848901 C39.3224092,22.2403884 39.0398828,22.9102535 38.6564482,23.4945055 C38.2730136,24.0787575 37.7886825,24.5471594 37.2034404,24.8997253 C36.6181981,25.2522911 35.9118819,25.4285714 35.0844705,25.4285714 C33.5709131,25.4285714 32.5063937,25.0659377 31.8908803,24.3406593 C31.2753669,23.6153809 30.9474344,22.5476261 30.9070729,21.1373626 L30.9070729,10.9835165 L29,10.9835165 L29,21.1071429 C29,22.0338875 29.1009023,22.8598864 29.30271,23.5851648 C29.5045176,24.3104432 29.8223599,24.9249059 30.2562464,25.4285714 C30.6901328,25.932237 31.2551859,26.3200535 31.9514223,26.592033 C32.6476587,26.8640124 33.490193,27 34.4790506,27 C35.649535,27 36.7140544,26.7229881 37.6726408,26.168956 C38.6312272,25.614924 39.362769,24.8141078 39.8672882,23.7664835 L39.9278302,23.7664835 L39.9278302,26.5769231 L41.683548,26.5769231 Z M50.6675475,5 L50.6675475,8.0521978 L52.5746203,8.0521978 L52.5746203,5 L50.6675475,5 Z M50.6675475,10.9835165 L50.6675475,26.5769231 L52.5746203,26.5769231 L52.5746203,10.9835165 L50.6675475,10.9835165 Z M61.5586198,10.9835165 L61.5586198,26.5769231 L63.4656926,26.5769231 L63.4656926,17.4807692 C63.4858734,16.7151976 63.6120013,16.0050399 63.8440801,15.3502747 C64.0761588,14.6955095 64.3990463,14.1314127 64.812752,13.657967 C65.2264577,13.1845214 65.7309693,12.8118146 66.3263019,12.5398352 C66.9216345,12.2678557 67.6027251,12.1318681 68.3695942,12.1318681 C69.1364634,12.1318681 69.777193,12.2527461 70.2918026,12.4945055 C70.8064121,12.7362649 71.2150665,13.0686792 71.517778,13.4917582 C71.8204895,13.9148373 72.0323843,14.4134586 72.1534689,14.9876374 C72.2745536,15.5618161 72.3350949,16.1813153 72.3350949,16.8461538 L72.3350949,26.5769231 L74.2421678,26.5769231 L74.2421678,16.543956 C74.2421678,15.6172114 74.1513556,14.7811392 73.9697288,14.0357143 C73.7881019,13.2902893 73.4753047,12.6607169 73.0313279,12.146978 C72.587351,11.6332392 71.9970724,11.2353494 71.2604745,10.9532967 C70.5238766,10.6712441 69.6107105,10.5302198 68.5209492,10.5302198 C67.4110071,10.5302198 66.3918937,10.8173048 65.4635784,11.3914835 C64.5352632,11.9656623 63.8894884,12.7261858 63.5262346,13.6730769 L63.4656926,13.6730769 L63.4656926,10.9835165 L61.5586198,10.9835165 Z M89.7949737,12.1318681 C88.8868392,12.1318681 88.0897109,12.3232582 87.4035649,12.706044 C86.7174189,13.0888297 86.1473208,13.5924877 85.6932535,14.217033 C85.2391863,14.8415783 84.8961184,15.551736 84.6640396,16.3475275 C84.4319608,17.143319 84.3159231,17.9542083 84.3159231,18.7802198 C84.3159231,19.6062313 84.4319608,20.4171206 84.6640396,21.2129121 C84.8961184,22.0087036 85.2391863,22.7188613 85.6932535,23.3434066 C86.1473208,23.9679519 86.7174189,24.4716099 87.4035649,24.8543956 C88.0897109,25.2371814 88.8868392,25.4285714 89.7949737,25.4285714 C90.7031082,25.4285714 91.5002365,25.2371814 92.1863825,24.8543956 C92.8725285,24.4716099 93.4426266,23.9679519 93.8966939,23.3434066 C94.3507611,22.7188613 94.693829,22.0087036 94.9259078,21.2129121 C95.1579866,20.4171206 95.2740243,19.6062313 95.2740243,18.7802198 C95.2740243,17.9542083 95.1579866,17.143319 94.9259078,16.3475275 C94.693829,15.551736 94.3507611,14.8415783 93.8966939,14.217033 C93.4426266,13.5924877 92.8725285,13.0888297 92.1863825,12.706044 C91.5002365,12.3232582 90.7031082,12.1318681 89.7949737,12.1318681 Z M89.7949737,10.5302198 C90.9856388,10.5302198 92.0400681,10.7518293 92.958293,11.1950549 C93.8765178,11.6382806 94.6484205,12.232597 95.2740243,12.978022 C95.8996281,13.7234469 96.3738689,14.5947753 96.6967612,15.592033 C97.0196535,16.5892907 97.1810971,17.652009 97.1810971,18.7802198 C97.1810971,19.9084306 97.0196535,20.9711489 96.6967612,21.9684066 C96.3738689,22.9656643 95.8996281,23.8369926 95.2740243,24.5824176 C94.6484205,25.3278425 93.8765178,25.9171224 92.958293,26.3502747 C92.0400681,26.783427 90.9856388,27 89.7949737,27 C88.6043085,27 87.5498793,26.783427 86.6316544,26.3502747 C85.7134296,25.9171224 84.9415269,25.3278425 84.3159231,24.5824176 C83.6903193,23.8369926 83.2160785,22.9656643 82.8931862,21.9684066 C82.5702939,20.9711489 82.4088503,19.9084306 82.4088503,18.7802198 C82.4088503,17.652009 82.5702939,16.5892907 82.8931862,15.592033 C83.2160785,14.5947753 83.6903193,13.7234469 84.3159231,12.978022 C84.9415269,12.232597 85.7134296,11.6382806 86.6316544,11.1950549 C87.5498793,10.7518293 88.6043085,10.5302198 89.7949737,10.5302198 Z M105.196425,15.7582418 C105.256967,14.8516438 105.448681,14.0659374 105.771574,13.4010989 C106.094466,12.7362604 106.533391,12.1923099 107.088362,11.7692308 C107.643333,11.3461517 108.294152,11.0338838 109.040842,10.8324176 C109.78753,10.6309514 110.614928,10.5302198 111.523064,10.5302198 C112.209209,10.5302198 112.895345,10.5956954 113.581491,10.7266484 C114.267637,10.8576013 114.883141,11.1043938 115.428022,11.467033 C115.972902,11.8296722 116.416873,12.3383667 116.759946,12.9931319 C117.103019,13.647897 117.274553,14.499079 117.274553,15.5467033 L117.274553,23.8269231 C117.274553,24.5924947 117.647891,24.9752747 118.39458,24.9752747 C118.616568,24.9752747 118.818373,24.934982 119,24.8543956 L119,26.456044 C118.778011,26.4963372 118.581252,26.5265566 118.409716,26.5467033 C118.238178,26.56685 118.021238,26.5769231 117.758889,26.5769231 C117.27455,26.5769231 116.886077,26.5114475 116.593456,26.3804945 C116.300835,26.2495415 116.073804,26.063188 115.912358,25.8214286 C115.750912,25.5796691 115.644965,25.292584 115.594513,24.9601648 C115.544061,24.6277456 115.518835,24.2600753 115.518835,23.8571429 L115.458293,23.8571429 C115.11522,24.3608084 114.767107,24.809064 114.413944,25.2019231 C114.06078,25.5947822 113.667261,25.9221598 113.233375,26.1840659 C112.799488,26.445972 112.305067,26.6474352 111.750096,26.7884615 C111.195125,26.9294879 110.534214,27 109.767346,27 C109.040837,27 108.359748,26.9143782 107.724053,26.7431319 C107.088359,26.5718855 106.533396,26.2999103 106.059148,25.9271978 C105.5849,25.5544853 105.211562,25.0810469 104.939121,24.5068681 C104.666681,23.9326894 104.530463,23.2527511 104.530463,22.467033 C104.530463,21.3791155 104.772628,20.5279335 105.256967,19.9134615 C105.741305,19.2989896 106.382035,18.8305877 107.179175,18.5082418 C107.976316,18.1858958 108.874346,17.9592497 109.873294,17.8282967 C110.872241,17.6973437 111.88631,17.5714292 112.915529,17.4505495 C113.319145,17.4102562 113.672302,17.3598904 113.975014,17.2994505 C114.277725,17.2390107 114.529981,17.1332425 114.731789,16.9821429 C114.933596,16.8310432 115.089995,16.6245435 115.20099,16.3626374 C115.311984,16.1007313 115.36748,15.7582439 115.36748,15.3351648 C115.36748,14.690473 115.261533,14.1616321 115.049635,13.7486264 C114.837737,13.3356206 114.54512,13.0082429 114.171776,12.7664835 C113.798432,12.5247241 113.364551,12.3585169 112.870123,12.2678571 C112.375694,12.1771974 111.845957,12.1318681 111.280896,12.1318681 C110.070049,12.1318681 109.081206,12.4189531 108.314338,12.9931319 C107.547468,13.5673106 107.143859,14.4890046 107.103497,15.7582418 L105.196425,15.7582418 Z M115.36748,18.0549451 L115.306938,18.0549451 C115.185853,18.2765579 114.953778,18.4377284 114.610705,18.5384615 C114.267632,18.6391946 113.964924,18.7097068 113.702575,18.75 C112.895344,18.8910263 112.0629,19.0169408 111.205218,19.1277473 C110.347535,19.2385537 109.565542,19.4047608 108.859216,19.6263736 C108.152889,19.8479865 107.5727,20.165291 107.118633,20.5782967 C106.664566,20.9913025 106.437536,21.5805822 106.437536,22.3461538 C106.437536,22.8296727 106.533393,23.257782 106.72511,23.6304945 C106.916827,24.003207 107.174128,24.325548 107.49702,24.5975275 C107.819913,24.8695069 108.193252,25.0760066 108.617048,25.217033 C109.040844,25.3580593 109.474724,25.4285714 109.918701,25.4285714 C110.645208,25.4285714 111.341434,25.3177667 112.0074,25.0961538 C112.673365,24.874541 113.253553,24.5522 113.747982,24.1291209 C114.24241,23.7060418 114.63593,23.1923107 114.928551,22.5879121 C115.221172,21.9835135 115.36748,21.2985386 115.36748,20.532967 L115.36748,18.0549451 Z" id="uinoa"></path>
            </g>
        </g>
    </g>
</svg>