<?xml version="1.0" encoding="UTF-8"?>
<svg width="64px" height="81px" viewBox="0 0 64 81" version="1.1" xmlns="http://www.w3.org/2000/svg" xmlns:xlink="http://www.w3.org/1999/xlink">
    <!-- Generator: Sketch 47.1 (45422) - http://www.bohemiancoding.com/sketch -->
    <title>Pin</title>
    <desc>Created with Sketch.</desc>
    <defs>
        <filter x="-20.0%" y="-13.0%" width="148.0%" height="134.8%" filterUnits="objectBoundingBox" id="filter-1">
            <feOffset dx="2" dy="3" in="SourceAlpha" result="shadowOffsetOuter1"></feOffset>
            <feGaussianBlur stdDeviation="3.5" in="shadowOffsetOuter1" result="shadowBlurOuter1"></feGaussianBlur>
            <feColorMatrix values="0 0 0 0 0   0 0 0 0 0   0 0 0 0 0  0 0 0 0.5 0" type="matrix" in="shadowBlurOuter1" result="shadowMatrixOuter1"></feColorMatrix>
            <feMerge>
                <feMergeNode in="shadowMatrixOuter1"></feMergeNode>
                <feMergeNode in="SourceGraphic"></feMergeNode>
            </feMerge>
        </filter>
    </defs>
    <g id="App" stroke="none" stroke-width="1" fill="none" fill-rule="evenodd">
        <g id="Map" transform="translate(-49.000000, -374.000000)">
            <g id="Pin" transform="translate(54.000000, 378.000000)">
                <g id="if_94_171453" filter="url(#filter-1)" fill-opacity="0.8" fill="#32DBB0">
                    <path d="M49.743,24.7580855 C49.743,11.084309 38.6083388,0 24.8715,0 C11.1356389,0 0,11.084309 0,24.7580855 C0,30.7700302 2.15487493,36.2823645 5.73574129,40.5701159 L24.8930096,68.0843686 L44.3303922,40.1687655 C45.0284778,39.2990916 45.6679008,38.3824876 46.2447502,37.4189535 L46.4412701,37.1383504 L46.4090057,37.1383504 C48.5257499,33.4944217 49.743,29.2697327 49.743,24.7580855" id="Shape" fill-rule="nonzero"></path>
                </g>
                <g id="Leaf" transform="translate(25.216480, 23.690073) rotate(-91.000000) translate(-25.216480, -23.690073) translate(12.716480, 12.690073)" fill="#FFFFFF">
                    <path d="M24.0509574,0.585009891 C23.953578,0.241783749 23.5859025,5.68434189e-14 23.1663519,5.68434189e-14 C23.1645318,5.68434189e-14 23.1627116,5.68434189e-14 23.1608914,5.68434189e-14 C18.3674584,0.0251699171 6.71105239,0.69865588 2.00498779,6.39163349 C-0.439508338,9.34948011 -0.649738646,13.1897993 1.3797574,17.8058095 C1.39522889,17.8416576 1.42708197,17.8660648 1.44801399,17.898862 C0.722673926,19.4037179 0.441456761,20.4051755 0.434176058,20.4333963 C0.32860586,20.8452677 0.64258619,21.2510373 1.13403366,21.3395133 C1.19773982,21.3509542 1.26144597,21.3562933 1.32515212,21.3562933 C1.74470265,21.3562933 2.12238914,21.1114586 2.21430801,20.7537407 C2.23341986,20.6759428 4.55232386,12.8419968 12.7503958,8.2618346 C13.1690362,8.02844083 13.2818871,7.55478875 13.0024901,7.20393536 C12.7230931,6.85308197 12.1588386,6.75774138 11.7401982,6.9926606 C7.09146914,9.58973841 4.22833257,13.1005605 2.54466993,15.8829804 C1.33971353,12.3912265 1.65551404,9.49363509 3.50208241,7.26037699 C7.13606345,2.86403148 15.7555061,1.80384406 20.9584787,1.57960298 C19.8390705,2.95327027 18.6159124,5.47178743 18.6159124,9.91542188 C18.6159124,12.2951231 17.8104846,14.127188 16.2232913,15.3612767 C13.6786854,17.3374965 9.54506615,17.5228386 6.5217541,17.3321575 C6.01938558,17.2978348 5.58345347,17.6151283 5.54522977,18.0353897 C5.50700608,18.4548883 5.88287239,18.8209962 6.38342074,18.8530306 C6.9886292,18.8919296 7.63479162,18.9155741 8.3064365,18.9155741 C11.3843538,18.9155741 14.9746506,18.4098875 17.4601007,16.4794312 C19.4349915,14.9455917 20.4360882,12.7375035 20.4360882,9.91618461 C20.4360882,2.97615201 23.5576897,1.45299067 23.5731612,1.44612615 C23.9517578,1.28671667 24.150157,0.929761483 24.0509574,0.585009891 Z" id="Shape" fill-rule="nonzero"></path>
                </g>
            </g>
        </g>
    </g>
</svg>