<?xml version="1.0" encoding="UTF-8"?>
<svg width="28px" height="35px" viewBox="0 0 28 35" version="1.1" xmlns="http://www.w3.org/2000/svg" xmlns:xlink="http://www.w3.org/1999/xlink">
    <!-- Generator: Sketch 47.1 (45422) - http://www.bohemiancoding.com/sketch -->
    <title>water_icon</title>
    <desc>Created with Sketch.</desc>
    <defs></defs>
    <g id="Symbols" stroke="none" stroke-width="1" fill="none" fill-rule="evenodd">
        <g id="Category-teaser" transform="translate(-144.000000, -35.000000)" fill-rule="#FFFFFF" fill="#8B999F">
            <g id="1">
                <g id="water_icon" transform="translate(144.000000, 35.000000)">
                    <g id="Group">
                        <path d="M9.5,9 C9.5,9 0,20.0515485 0,25.3704036 C0,30.6892587 4.2533228,35 9.5,35 C14.7466772,35 19,30.6910541 19,25.3704036 C19,20.0497531 9.5,9 9.5,9 Z M9.5,32.5923765 C5.57161446,32.5923765 2.37522075,29.3525878 2.37522075,25.3704036 C2.37522075,25.1036716 2.58790526,24.8874426 2.85026489,24.8874426 C3.11262453,24.8874426 3.32530904,25.1036716 3.32530904,25.3704036 C3.33407255,28.8308213 6.09629563,31.6310467 9.5,31.6300452 C9.66908602,31.6300452 9.82532796,31.7217549 9.90987098,31.870628 C9.994414,32.0195012 9.994414,32.2029205 9.90987098,32.3517937 C9.82532796,32.5006669 9.66908602,32.5923765 9.5,32.5923765 L9.5,32.5923765 Z" id="Shape"></path>
                        <path d="M21.4995479,0 C21.4995479,0 15,7.64320557 15,11.3207898 C15,15.0096157 17.9101491,18 21.5,18 C25.0898509,18 28,15.0096157 28,11.3207898 C27.9990958,7.64227642 21.4995479,0 21.4995479,0 Z M21.4995479,16.3149826 C18.8125759,16.3160166 16.6318672,14.0818346 16.624887,11.3207898 C16.624887,11.13631 16.7704248,10.9867596 16.9499548,10.9867596 C17.1294848,10.9867596 17.2750226,11.13631 17.2750226,11.3207898 C17.2810052,13.7137514 19.1707843,15.6502298 21.4995479,15.6497096 C21.6151989,15.6497096 21.7220648,15.7131098 21.7798903,15.8160279 C21.8377158,15.918946 21.8377158,16.0457463 21.7798903,16.1486644 C21.7220648,16.2515824 21.6151989,16.3149826 21.4995479,16.3149826 L21.4995479,16.3149826 Z" id="Shape"></path>
                    </g>
                </g>
            </g>
        </g>
    </g>
</svg>